solid object
 facet normal -9.990212e-01 -4.423335e-02  0.000000e+00
   outer loop
     vertex  2.490217e-01  2.209503e-02  2.500000e-01
     vertex  2.500000e-01 -6.123234e-17  0.000000e+00
     vertex  2.500000e-01 -6.123234e-17  2.500000e-01
   endloop
 endfacet
 facet normal -9.990212e-01 -4.423335e-02 -0.000000e+00
   outer loop
     vertex  2.490217e-01  2.209503e-02  2.500000e-01
     vertex  2.490217e-01  2.209503e-02  0.000000e+00
     vertex  2.500000e-01 -6.123234e-17  0.000000e+00
   endloop
 endfacet
 facet normal -9.912025e-01 -1.323539e-01  0.000000e+00
   outer loop
     vertex  2.460945e-01  4.401713e-02  2.500000e-01
     vertex  2.490217e-01  2.209503e-02  0.000000e+00
     vertex  2.490217e-01  2.209503e-02  2.500000e-01
   endloop
 endfacet
 facet normal -9.912025e-01 -1.323539e-01 -0.000000e+00
   outer loop
     vertex  2.460945e-01  4.401713e-02  2.500000e-01
     vertex  2.460945e-01  4.401713e-02  0.000000e+00
     vertex  2.490217e-01  2.209503e-02  0.000000e+00
   endloop
 endfacet
 facet normal -9.756263e-01 -2.194385e-01  0.000000e+00
   outer loop
     vertex  2.412412e-01  6.559474e-02  2.500000e-01
     vertex  2.460945e-01  4.401713e-02  0.000000e+00
     vertex  2.460945e-01  4.401713e-02  2.500000e-01
   endloop
 endfacet
 facet normal -9.756263e-01 -2.194385e-01 -0.000000e+00
   outer loop
     vertex  2.412412e-01  6.559474e-02  2.500000e-01
     vertex  2.412412e-01  6.559474e-02  0.000000e+00
     vertex  2.460945e-01  4.401713e-02  0.000000e+00
   endloop
 endfacet
 facet normal -9.524145e-01 -3.048058e-01  0.000000e+00
   outer loop
     vertex  2.344999e-01  8.665898e-02  2.500000e-01
     vertex  2.412412e-01  6.559474e-02  0.000000e+00
     vertex  2.412412e-01  6.559474e-02  2.500000e-01
   endloop
 endfacet
 facet normal -9.524145e-01 -3.048058e-01 -0.000000e+00
   outer loop
     vertex  2.344999e-01  8.665898e-02  2.500000e-01
     vertex  2.344999e-01  8.665898e-02  0.000000e+00
     vertex  2.412412e-01  6.559474e-02  0.000000e+00
   endloop
 endfacet
 facet normal -9.217488e-01 -3.877875e-01  0.000000e+00
   outer loop
     vertex  2.259234e-01  1.070450e-01  2.500000e-01
     vertex  2.344999e-01  8.665898e-02  0.000000e+00
     vertex  2.344999e-01  8.665898e-02  2.500000e-01
   endloop
 endfacet
 facet normal -9.217488e-01 -3.877875e-01 -0.000000e+00
   outer loop
     vertex  2.259234e-01  1.070450e-01  2.500000e-01
     vertex  2.259234e-01  1.070450e-01  0.000000e+00
     vertex  2.344999e-01  8.665898e-02  0.000000e+00
   endloop
 endfacet
 facet normal -8.838691e-01 -4.677343e-01  0.000000e+00
   outer loop
     vertex  2.155786e-01  1.265932e-01  2.500000e-01
     vertex  2.259234e-01  1.070450e-01  0.000000e+00
     vertex  2.259234e-01  1.070450e-01  2.500000e-01
   endloop
 endfacet
 facet normal -8.838691e-01 -4.677343e-01 -0.000000e+00
   outer loop
     vertex  2.155786e-01  1.265932e-01  2.500000e-01
     vertex  2.155786e-01  1.265932e-01  0.000000e+00
     vertex  2.259234e-01  1.070450e-01  0.000000e+00
   endloop
 endfacet
 facet normal -8.390720e-01 -5.440204e-01  0.000000e+00
   outer loop
     vertex  2.035467e-01  1.451507e-01  2.500000e-01
     vertex  2.155786e-01  1.265932e-01  0.000000e+00
     vertex  2.155786e-01  1.265932e-01  2.500000e-01
   endloop
 endfacet
 facet normal -8.390720e-01 -5.440204e-01 -0.000000e+00
   outer loop
     vertex  2.035467e-01  1.451507e-01  2.500000e-01
     vertex  2.035467e-01  1.451507e-01  0.000000e+00
     vertex  2.155786e-01  1.265932e-01  0.000000e+00
   endloop
 endfacet
 facet normal -7.877080e-01 -6.160488e-01 -0.000000e+00
   outer loop
     vertex  1.899218e-01  1.625722e-01  2.500000e-01
     vertex  1.899218e-01  1.625722e-01  0.000000e+00
     vertex  2.035467e-01  1.451507e-01  0.000000e+00
   endloop
 endfacet
 facet normal -7.877080e-01 -6.160488e-01  0.000000e+00
   outer loop
     vertex  1.899218e-01  1.625722e-01  2.500000e-01
     vertex  2.035467e-01  1.451507e-01  0.000000e+00
     vertex  2.035467e-01  1.451507e-01  2.500000e-01
   endloop
 endfacet
 facet normal -7.301791e-01 -6.832558e-01 -0.000000e+00
   outer loop
     vertex  1.748104e-01  1.787213e-01  2.500000e-01
     vertex  1.748104e-01  1.787213e-01  0.000000e+00
     vertex  1.899218e-01  1.625722e-01  0.000000e+00
   endloop
 endfacet
 facet normal -7.301791e-01 -6.832558e-01  0.000000e+00
   outer loop
     vertex  1.748104e-01  1.787213e-01  2.500000e-01
     vertex  1.899218e-01  1.625722e-01  0.000000e+00
     vertex  1.899218e-01  1.625722e-01  2.500000e-01
   endloop
 endfacet
 facet normal -6.669355e-01 -7.451154e-01 -0.000000e+00
   outer loop
     vertex  1.583310e-01  1.934717e-01  2.500000e-01
     vertex  1.583310e-01  1.934717e-01  0.000000e+00
     vertex  1.748104e-01  1.787213e-01  0.000000e+00
   endloop
 endfacet
 facet normal -6.669355e-01 -7.451154e-01  0.000000e+00
   outer loop
     vertex  1.583310e-01  1.934717e-01  2.500000e-01
     vertex  1.748104e-01  1.787213e-01  0.000000e+00
     vertex  1.748104e-01  1.787213e-01  2.500000e-01
   endloop
 endfacet
 facet normal -5.984723e-01 -8.011435e-01 -0.000000e+00
   outer loop
     vertex  1.406123e-01  2.067079e-01  2.500000e-01
     vertex  1.406123e-01  2.067079e-01  0.000000e+00
     vertex  1.583310e-01  1.934717e-01  0.000000e+00
   endloop
 endfacet
 facet normal -5.984723e-01 -8.011435e-01  0.000000e+00
   outer loop
     vertex  1.406123e-01  2.067079e-01  2.500000e-01
     vertex  1.583310e-01  1.934717e-01  0.000000e+00
     vertex  1.583310e-01  1.934717e-01  2.500000e-01
   endloop
 endfacet
 facet normal -5.253252e-01 -8.509015e-01 -0.000000e+00
   outer loop
     vertex  1.217932e-01  2.183264e-01  2.500000e-01
     vertex  1.217932e-01  2.183264e-01  0.000000e+00
     vertex  1.406123e-01  2.067079e-01  0.000000e+00
   endloop
 endfacet
 facet normal -5.253252e-01 -8.509015e-01  0.000000e+00
   outer loop
     vertex  1.217932e-01  2.183264e-01  2.500000e-01
     vertex  1.406123e-01  2.067079e-01  0.000000e+00
     vertex  1.406123e-01  2.067079e-01  2.500000e-01
   endloop
 endfacet
 facet normal -4.480668e-01 -8.940001e-01 -0.000000e+00
   outer loop
     vertex  1.020209e-01  2.282361e-01  2.500000e-01
     vertex  1.020209e-01  2.282361e-01  0.000000e+00
     vertex  1.217932e-01  2.183264e-01  0.000000e+00
   endloop
 endfacet
 facet normal -4.480668e-01 -8.940001e-01  0.000000e+00
   outer loop
     vertex  1.020209e-01  2.282361e-01  2.500000e-01
     vertex  1.217932e-01  2.183264e-01  0.000000e+00
     vertex  1.217932e-01  2.183264e-01  2.500000e-01
   endloop
 endfacet
 facet normal -3.673016e-01 -9.301019e-01  0.000000e+00
   outer loop
     vertex  8.145014e-02  2.363596e-01  2.500000e-01
     vertex  1.020209e-01  2.282361e-01  0.000000e+00
     vertex  1.020209e-01  2.282361e-01  2.500000e-01
   endloop
 endfacet
 facet normal -3.673016e-01 -9.301019e-01 -0.000000e+00
   outer loop
     vertex  8.145014e-02  2.363596e-01  2.500000e-01
     vertex  8.145014e-02  2.363596e-01  0.000000e+00
     vertex  1.020209e-01  2.282361e-01  0.000000e+00
   endloop
 endfacet
 facet normal -2.836618e-01 -9.589244e-01  0.000000e+00
   outer loop
     vertex  6.024193e-02  2.426333e-01  2.500000e-01
     vertex  8.145014e-02  2.363596e-01  0.000000e+00
     vertex  8.145014e-02  2.363596e-01  2.500000e-01
   endloop
 endfacet
 facet normal -2.836618e-01 -9.589244e-01 -0.000000e+00
   outer loop
     vertex  6.024193e-02  2.426333e-01  2.500000e-01
     vertex  6.024193e-02  2.426333e-01  0.000000e+00
     vertex  8.145014e-02  2.363596e-01  0.000000e+00
   endloop
 endfacet
 facet normal -1.978019e-01 -9.802420e-01  0.000000e+00
   outer loop
     vertex  3.856223e-02  2.470080e-01  2.500000e-01
     vertex  6.024193e-02  2.426333e-01  0.000000e+00
     vertex  6.024193e-02  2.426333e-01  2.500000e-01
   endloop
 endfacet
 facet normal -1.978019e-01 -9.802420e-01 -0.000000e+00
   outer loop
     vertex  3.856223e-02  2.470080e-01  2.500000e-01
     vertex  3.856223e-02  2.470080e-01  0.000000e+00
     vertex  6.024193e-02  2.426333e-01  0.000000e+00
   endloop
 endfacet
 facet normal -1.103940e-01 -9.938879e-01  0.000000e+00
   outer loop
     vertex  1.658074e-02  2.494496e-01  2.500000e-01
     vertex  3.856223e-02  2.470080e-01  0.000000e+00
     vertex  3.856223e-02  2.470080e-01  2.500000e-01
   endloop
 endfacet
 facet normal -1.103940e-01 -9.938879e-01 -0.000000e+00
   outer loop
     vertex  1.658074e-02  2.494496e-01  2.500000e-01
     vertex  1.658074e-02  2.494496e-01  0.000000e+00
     vertex  3.856223e-02  2.470080e-01  0.000000e+00
   endloop
 endfacet
 facet normal -2.212209e-02 -9.997553e-01  0.000000e+00
   outer loop
     vertex -5.530522e-03  2.499388e-01  2.500000e-01
     vertex  1.658074e-02  2.494496e-01  0.000000e+00
     vertex  1.658074e-02  2.494496e-01  2.500000e-01
   endloop
 endfacet
 facet normal -2.212209e-02 -9.997553e-01 -0.000000e+00
   outer loop
     vertex -5.530522e-03  2.499388e-01  2.500000e-01
     vertex -5.530522e-03  2.499388e-01  0.000000e+00
     vertex  1.658074e-02  2.494496e-01  0.000000e+00
   endloop
 endfacet
 facet normal  6.632296e-02 -9.977982e-01  0.000000e+00
   outer loop
     vertex -2.759850e-02  2.484720e-01  2.500000e-01
     vertex -5.530522e-03  2.499388e-01  0.000000e+00
     vertex -5.530522e-03  2.499388e-01  2.500000e-01
   endloop
 endfacet
 facet normal  6.632296e-02 -9.977982e-01  0.000000e+00
   outer loop
     vertex -2.759850e-02  2.484720e-01  2.500000e-01
     vertex -2.759850e-02  2.484720e-01  0.000000e+00
     vertex -5.530522e-03  2.499388e-01  0.000000e+00
   endloop
 endfacet
 facet normal  1.542489e-01 -9.880320e-01  0.000000e+00
   outer loop
     vertex -4.945048e-02  2.450605e-01  2.500000e-01
     vertex -2.759850e-02  2.484720e-01  0.000000e+00
     vertex -2.759850e-02  2.484720e-01  2.500000e-01
   endloop
 endfacet
 facet normal  1.542489e-01 -9.880320e-01  0.000000e+00
   outer loop
     vertex -4.945048e-02  2.450605e-01  2.500000e-01
     vertex -4.945048e-02  2.450605e-01  0.000000e+00
     vertex -2.759850e-02  2.484720e-01  0.000000e+00
   endloop
 endfacet
 facet normal  2.409677e-01 -9.705331e-01  0.000000e+00
   outer loop
     vertex -7.091544e-02  2.397311e-01  2.500000e-01
     vertex -4.945048e-02  2.450605e-01  0.000000e+00
     vertex -4.945048e-02  2.450605e-01  2.500000e-01
   endloop
 endfacet
 facet normal  2.409677e-01 -9.705331e-01  0.000000e+00
   outer loop
     vertex -7.091544e-02  2.397311e-01  2.500000e-01
     vertex -7.091544e-02  2.397311e-01  0.000000e+00
     vertex -4.945048e-02  2.450605e-01  0.000000e+00
   endloop
 endfacet
 facet normal  3.258006e-01 -9.454385e-01  0.000000e+00
   outer loop
     vertex -9.182540e-02  2.325255e-01  2.500000e-01
     vertex -7.091544e-02  2.397311e-01  0.000000e+00
     vertex -7.091544e-02  2.397311e-01  2.500000e-01
   endloop
 endfacet
 facet normal  3.258006e-01 -9.454385e-01  0.000000e+00
   outer loop
     vertex -9.182540e-02  2.325255e-01  2.500000e-01
     vertex -9.182540e-02  2.325255e-01  0.000000e+00
     vertex -7.091544e-02  2.397311e-01  0.000000e+00
   endloop
 endfacet
 facet normal  4.080836e-01 -9.129446e-01  0.000000e+00
   outer loop
     vertex -1.120167e-01  2.235000e-01  2.500000e-01
     vertex -9.182540e-02  2.325255e-01  0.000000e+00
     vertex -9.182540e-02  2.325255e-01  2.500000e-01
   endloop
 endfacet
 facet normal  4.080836e-01 -9.129446e-01  0.000000e+00
   outer loop
     vertex -1.120167e-01  2.235000e-01  2.500000e-01
     vertex -1.120167e-01  2.235000e-01  0.000000e+00
     vertex -9.182540e-02  2.325255e-01  0.000000e+00
   endloop
 endfacet
 facet normal  4.871728e-01 -8.733056e-01  0.000000e+00
   outer loop
     vertex -1.313313e-01  2.127254e-01  2.500000e-01
     vertex -1.120167e-01  2.235000e-01  0.000000e+00
     vertex -1.120167e-01  2.235000e-01  2.500000e-01
   endloop
 endfacet
 facet normal  4.871728e-01 -8.733056e-01  0.000000e+00
   outer loop
     vertex -1.313313e-01  2.127254e-01  2.500000e-01
     vertex -1.313313e-01  2.127254e-01  0.000000e+00
     vertex -1.120167e-01  2.235000e-01  0.000000e+00
   endloop
 endfacet
 facet normal  5.624493e-01 -8.268318e-01  0.000000e+00
   outer loop
     vertex -1.496181e-01  2.002859e-01  2.500000e-01
     vertex -1.313313e-01  2.127254e-01  0.000000e+00
     vertex -1.313313e-01  2.127254e-01  2.500000e-01
   endloop
 endfacet
 facet normal  5.624493e-01 -8.268318e-01  0.000000e+00
   outer loop
     vertex -1.496181e-01  2.002859e-01  2.500000e-01
     vertex -1.496181e-01  2.002859e-01  0.000000e+00
     vertex -1.313313e-01  2.127254e-01  0.000000e+00
   endloop
 endfacet
 facet normal  6.333238e-01 -7.738869e-01  0.000000e+00
   outer loop
     vertex -1.667339e-01  1.862789e-01  2.500000e-01
     vertex -1.496181e-01  2.002859e-01  0.000000e+00
     vertex -1.496181e-01  2.002859e-01  2.500000e-01
   endloop
 endfacet
 facet normal  6.333238e-01 -7.738869e-01  0.000000e+00
   outer loop
     vertex -1.667339e-01  1.862789e-01  2.500000e-01
     vertex -1.667339e-01  1.862789e-01  0.000000e+00
     vertex -1.496181e-01  2.002859e-01  0.000000e+00
   endloop
 endfacet
 facet normal  6.992417e-01 -7.148853e-01  0.000000e+00
   outer loop
     vertex -1.825448e-01  1.708140e-01  2.500000e-01
     vertex -1.667339e-01  1.862789e-01  0.000000e+00
     vertex -1.667339e-01  1.862789e-01  2.500000e-01
   endloop
 endfacet
 facet normal  6.992417e-01 -7.148853e-01  0.000000e+00
   outer loop
     vertex -1.825448e-01  1.708140e-01  2.500000e-01
     vertex -1.825448e-01  1.708140e-01  0.000000e+00
     vertex -1.667339e-01  1.862789e-01  0.000000e+00
   endloop
 endfacet
 facet normal  7.596871e-01 -6.502888e-01  0.000000e+00
   outer loop
     vertex -1.969270e-01  1.540122e-01  2.500000e-01
     vertex -1.825448e-01  1.708140e-01  0.000000e+00
     vertex -1.825448e-01  1.708140e-01  2.500000e-01
   endloop
 endfacet
 facet normal  7.596871e-01 -6.502888e-01  0.000000e+00
   outer loop
     vertex -1.969270e-01  1.540122e-01  2.500000e-01
     vertex -1.969270e-01  1.540122e-01  0.000000e+00
     vertex -1.825448e-01  1.708140e-01  0.000000e+00
   endloop
 endfacet
 facet normal  8.141869e-01 -5.806029e-01  0.000000e+00
   outer loop
     vertex -2.097680e-01  1.360051e-01  2.500000e-01
     vertex -2.097680e-01  1.360051e-01  0.000000e+00
     vertex -1.969270e-01  1.540122e-01  0.000000e+00
   endloop
 endfacet
 facet normal  8.141869e-01 -5.806029e-01  0.000000e+00
   outer loop
     vertex -2.097680e-01  1.360051e-01  2.500000e-01
     vertex -1.969270e-01  1.540122e-01  0.000000e+00
     vertex -1.969270e-01  1.540122e-01  2.500000e-01
   endloop
 endfacet
 facet normal  8.623146e-01 -5.063730e-01  0.000000e+00
   outer loop
     vertex -2.209673e-01  1.169336e-01  2.500000e-01
     vertex -2.209673e-01  1.169336e-01  0.000000e+00
     vertex -2.097680e-01  1.360051e-01  0.000000e+00
   endloop
 endfacet
 facet normal  8.623146e-01 -5.063730e-01  0.000000e+00
   outer loop
     vertex -2.209673e-01  1.169336e-01  2.500000e-01
     vertex -2.097680e-01  1.360051e-01  0.000000e+00
     vertex -2.097680e-01  1.360051e-01  2.500000e-01
   endloop
 endfacet
 facet normal  9.036935e-01 -4.281800e-01  0.000000e+00
   outer loop
     vertex -2.304372e-01  9.694688e-02  2.500000e-01
     vertex -2.304372e-01  9.694688e-02  0.000000e+00
     vertex -2.209673e-01  1.169336e-01  0.000000e+00
   endloop
 endfacet
 facet normal  9.036935e-01 -4.281800e-01  0.000000e+00
   outer loop
     vertex -2.304372e-01  9.694688e-02  2.500000e-01
     vertex -2.209673e-01  1.169336e-01  0.000000e+00
     vertex -2.209673e-01  1.169336e-01  2.500000e-01
   endloop
 endfacet
 facet normal  9.379998e-01 -3.466359e-01  0.000000e+00
   outer loop
     vertex -2.381036e-01  7.620144e-02  2.500000e-01
     vertex -2.381036e-01  7.620144e-02  0.000000e+00
     vertex -2.304372e-01  9.694688e-02  0.000000e+00
   endloop
 endfacet
 facet normal  9.379998e-01 -3.466359e-01  0.000000e+00
   outer loop
     vertex -2.381036e-01  7.620144e-02  2.500000e-01
     vertex -2.304372e-01  9.694688e-02  0.000000e+00
     vertex -2.304372e-01  9.694688e-02  2.500000e-01
   endloop
 endfacet
 facet normal  9.649649e-01 -2.623790e-01  0.000000e+00
   outer loop
     vertex -2.439066e-01  5.485963e-02  2.500000e-01
     vertex -2.439066e-01  5.485963e-02  0.000000e+00
     vertex -2.381036e-01  7.620144e-02  0.000000e+00
   endloop
 endfacet
 facet normal  9.649649e-01 -2.623790e-01  0.000000e+00
   outer loop
     vertex -2.439066e-01  5.485963e-02  2.500000e-01
     vertex -2.381036e-01  7.620144e-02  0.000000e+00
     vertex -2.381036e-01  7.620144e-02  2.500000e-01
   endloop
 endfacet
 facet normal  9.843779e-01 -1.760685e-01  0.000000e+00
   outer loop
     vertex -2.478006e-01  3.308846e-02  2.500000e-01
     vertex -2.478006e-01  3.308846e-02  0.000000e+00
     vertex -2.439066e-01  5.485963e-02  0.000000e+00
   endloop
 endfacet
 facet normal  9.843779e-01 -1.760685e-01  0.000000e+00
   outer loop
     vertex -2.478006e-01  3.308846e-02  2.500000e-01
     vertex -2.439066e-01  5.485963e-02  0.000000e+00
     vertex -2.439066e-01  5.485963e-02  2.500000e-01
   endloop
 endfacet
 facet normal  9.960868e-01 -8.838010e-02  0.000000e+00
   outer loop
     vertex -2.497553e-01  1.105834e-02  2.500000e-01
     vertex -2.497553e-01  1.105834e-02  0.000000e+00
     vertex -2.478006e-01  3.308846e-02  0.000000e+00
   endloop
 endfacet
 facet normal  9.960868e-01 -8.838010e-02  0.000000e+00
   outer loop
     vertex -2.497553e-01  1.105834e-02  2.500000e-01
     vertex -2.478006e-01  3.308846e-02  0.000000e+00
     vertex -2.478006e-01  3.308846e-02  2.500000e-01
   endloop
 endfacet
 facet normal  1.000000e+00  2.509923e-15  0.000000e+00
   outer loop
     vertex -2.497553e-01 -1.105834e-02  2.500000e-01
     vertex -2.497553e-01 -1.105834e-02  0.000000e+00
     vertex -2.497553e-01  1.105834e-02  0.000000e+00
   endloop
 endfacet
 facet normal  1.000000e+00  2.509923e-15  0.000000e+00
   outer loop
     vertex -2.497553e-01 -1.105834e-02  2.500000e-01
     vertex -2.497553e-01  1.105834e-02  0.000000e+00
     vertex -2.497553e-01  1.105834e-02  2.500000e-01
   endloop
 endfacet
 facet normal  9.960868e-01  8.838010e-02  0.000000e+00
   outer loop
     vertex -2.478006e-01 -3.308846e-02  2.500000e-01
     vertex -2.478006e-01 -3.308846e-02  0.000000e+00
     vertex -2.497553e-01 -1.105834e-02  0.000000e+00
   endloop
 endfacet
 facet normal  9.960868e-01  8.838010e-02  0.000000e+00
   outer loop
     vertex -2.478006e-01 -3.308846e-02  2.500000e-01
     vertex -2.497553e-01 -1.105834e-02  0.000000e+00
     vertex -2.497553e-01 -1.105834e-02  2.500000e-01
   endloop
 endfacet
 facet normal  9.843779e-01  1.760685e-01  0.000000e+00
   outer loop
     vertex -2.439066e-01 -5.485963e-02  2.500000e-01
     vertex -2.439066e-01 -5.485963e-02  0.000000e+00
     vertex -2.478006e-01 -3.308846e-02  0.000000e+00
   endloop
 endfacet
 facet normal  9.843779e-01  1.760685e-01  0.000000e+00
   outer loop
     vertex -2.439066e-01 -5.485963e-02  2.500000e-01
     vertex -2.478006e-01 -3.308846e-02  0.000000e+00
     vertex -2.478006e-01 -3.308846e-02  2.500000e-01
   endloop
 endfacet
 facet normal  9.649649e-01  2.623790e-01  0.000000e+00
   outer loop
     vertex -2.381036e-01 -7.620144e-02  2.500000e-01
     vertex -2.439066e-01 -5.485963e-02  0.000000e+00
     vertex -2.439066e-01 -5.485963e-02  2.500000e-01
   endloop
 endfacet
 facet normal  9.649649e-01  2.623790e-01  0.000000e+00
   outer loop
     vertex -2.381036e-01 -7.620144e-02  2.500000e-01
     vertex -2.381036e-01 -7.620144e-02  0.000000e+00
     vertex -2.439066e-01 -5.485963e-02  0.000000e+00
   endloop
 endfacet
 facet normal  9.379998e-01  3.466359e-01  0.000000e+00
   outer loop
     vertex -2.304372e-01 -9.694688e-02  2.500000e-01
     vertex -2.381036e-01 -7.620144e-02  0.000000e+00
     vertex -2.381036e-01 -7.620144e-02  2.500000e-01
   endloop
 endfacet
 facet normal  9.379998e-01  3.466359e-01  0.000000e+00
   outer loop
     vertex -2.304372e-01 -9.694688e-02  2.500000e-01
     vertex -2.304372e-01 -9.694688e-02  0.000000e+00
     vertex -2.381036e-01 -7.620144e-02  0.000000e+00
   endloop
 endfacet
 facet normal  9.036935e-01  4.281800e-01  0.000000e+00
   outer loop
     vertex -2.209673e-01 -1.169336e-01  2.500000e-01
     vertex -2.304372e-01 -9.694688e-02  0.000000e+00
     vertex -2.304372e-01 -9.694688e-02  2.500000e-01
   endloop
 endfacet
 facet normal  9.036935e-01  4.281800e-01  0.000000e+00
   outer loop
     vertex -2.209673e-01 -1.169336e-01  2.500000e-01
     vertex -2.209673e-01 -1.169336e-01  0.000000e+00
     vertex -2.304372e-01 -9.694688e-02  0.000000e+00
   endloop
 endfacet
 facet normal  8.623146e-01  5.063730e-01  0.000000e+00
   outer loop
     vertex -2.097680e-01 -1.360051e-01  2.500000e-01
     vertex -2.097680e-01 -1.360051e-01  0.000000e+00
     vertex -2.209673e-01 -1.169336e-01  0.000000e+00
   endloop
 endfacet
 facet normal  8.623146e-01  5.063730e-01  0.000000e+00
   outer loop
     vertex -2.097680e-01 -1.360051e-01  2.500000e-01
     vertex -2.209673e-01 -1.169336e-01  0.000000e+00
     vertex -2.209673e-01 -1.169336e-01  2.500000e-01
   endloop
 endfacet
 facet normal  8.141869e-01  5.806029e-01  0.000000e+00
   outer loop
     vertex -1.969270e-01 -1.540122e-01  2.500000e-01
     vertex -1.969270e-01 -1.540122e-01  0.000000e+00
     vertex -2.097680e-01 -1.360051e-01  0.000000e+00
   endloop
 endfacet
 facet normal  8.141869e-01  5.806029e-01  0.000000e+00
   outer loop
     vertex -1.969270e-01 -1.540122e-01  2.500000e-01
     vertex -2.097680e-01 -1.360051e-01  0.000000e+00
     vertex -2.097680e-01 -1.360051e-01  2.500000e-01
   endloop
 endfacet
 facet normal  7.596871e-01  6.502888e-01  0.000000e+00
   outer loop
     vertex -1.825448e-01 -1.708140e-01  2.500000e-01
     vertex -1.825448e-01 -1.708140e-01  0.000000e+00
     vertex -1.969270e-01 -1.540122e-01  0.000000e+00
   endloop
 endfacet
 facet normal  7.596871e-01  6.502888e-01  0.000000e+00
   outer loop
     vertex -1.825448e-01 -1.708140e-01  2.500000e-01
     vertex -1.969270e-01 -1.540122e-01  0.000000e+00
     vertex -1.969270e-01 -1.540122e-01  2.500000e-01
   endloop
 endfacet
 facet normal  6.992417e-01  7.148853e-01  0.000000e+00
   outer loop
     vertex -1.667339e-01 -1.862789e-01  2.500000e-01
     vertex -1.667339e-01 -1.862789e-01  0.000000e+00
     vertex -1.825448e-01 -1.708140e-01  0.000000e+00
   endloop
 endfacet
 facet normal  6.992417e-01  7.148853e-01  0.000000e+00
   outer loop
     vertex -1.667339e-01 -1.862789e-01  2.500000e-01
     vertex -1.825448e-01 -1.708140e-01  0.000000e+00
     vertex -1.825448e-01 -1.708140e-01  2.500000e-01
   endloop
 endfacet
 facet normal  6.333238e-01  7.738869e-01  0.000000e+00
   outer loop
     vertex -1.496181e-01 -2.002859e-01  2.500000e-01
     vertex -1.496181e-01 -2.002859e-01  0.000000e+00
     vertex -1.667339e-01 -1.862789e-01  0.000000e+00
   endloop
 endfacet
 facet normal  6.333238e-01  7.738869e-01  0.000000e+00
   outer loop
     vertex -1.496181e-01 -2.002859e-01  2.500000e-01
     vertex -1.667339e-01 -1.862789e-01  0.000000e+00
     vertex -1.667339e-01 -1.862789e-01  2.500000e-01
   endloop
 endfacet
 facet normal  5.624493e-01  8.268318e-01  0.000000e+00
   outer loop
     vertex -1.313313e-01 -2.127254e-01  2.500000e-01
     vertex -1.313313e-01 -2.127254e-01  0.000000e+00
     vertex -1.496181e-01 -2.002859e-01  0.000000e+00
   endloop
 endfacet
 facet normal  5.624493e-01  8.268318e-01  0.000000e+00
   outer loop
     vertex -1.313313e-01 -2.127254e-01  2.500000e-01
     vertex -1.496181e-01 -2.002859e-01  0.000000e+00
     vertex -1.496181e-01 -2.002859e-01  2.500000e-01
   endloop
 endfacet
 facet normal  4.871728e-01  8.733056e-01  0.000000e+00
   outer loop
     vertex -1.120167e-01 -2.235000e-01  2.500000e-01
     vertex -1.120167e-01 -2.235000e-01  0.000000e+00
     vertex -1.313313e-01 -2.127254e-01  0.000000e+00
   endloop
 endfacet
 facet normal  4.871728e-01  8.733056e-01  0.000000e+00
   outer loop
     vertex -1.120167e-01 -2.235000e-01  2.500000e-01
     vertex -1.313313e-01 -2.127254e-01  0.000000e+00
     vertex -1.313313e-01 -2.127254e-01  2.500000e-01
   endloop
 endfacet
 facet normal  4.080836e-01  9.129446e-01  0.000000e+00
   outer loop
     vertex -9.182540e-02 -2.325255e-01  2.500000e-01
     vertex -9.182540e-02 -2.325255e-01  0.000000e+00
     vertex -1.120167e-01 -2.235000e-01  0.000000e+00
   endloop
 endfacet
 facet normal  4.080836e-01  9.129446e-01  0.000000e+00
   outer loop
     vertex -9.182540e-02 -2.325255e-01  2.500000e-01
     vertex -1.120167e-01 -2.235000e-01  0.000000e+00
     vertex -1.120167e-01 -2.235000e-01  2.500000e-01
   endloop
 endfacet
 facet normal  3.258006e-01  9.454385e-01  0.000000e+00
   outer loop
     vertex -7.091544e-02 -2.397311e-01  2.500000e-01
     vertex -7.091544e-02 -2.397311e-01  0.000000e+00
     vertex -9.182540e-02 -2.325255e-01  0.000000e+00
   endloop
 endfacet
 facet normal  3.258006e-01  9.454385e-01  0.000000e+00
   outer loop
     vertex -7.091544e-02 -2.397311e-01  2.500000e-01
     vertex -9.182540e-02 -2.325255e-01  0.000000e+00
     vertex -9.182540e-02 -2.325255e-01  2.500000e-01
   endloop
 endfacet
 facet normal  2.409677e-01  9.705331e-01  0.000000e+00
   outer loop
     vertex -4.945048e-02 -2.450605e-01  2.500000e-01
     vertex -4.945048e-02 -2.450605e-01  0.000000e+00
     vertex -7.091544e-02 -2.397311e-01  0.000000e+00
   endloop
 endfacet
 facet normal  2.409677e-01  9.705331e-01  0.000000e+00
   outer loop
     vertex -4.945048e-02 -2.450605e-01  2.500000e-01
     vertex -7.091544e-02 -2.397311e-01  0.000000e+00
     vertex -7.091544e-02 -2.397311e-01  2.500000e-01
   endloop
 endfacet
 facet normal  1.542489e-01  9.880320e-01  0.000000e+00
   outer loop
     vertex -2.759850e-02 -2.484720e-01  2.500000e-01
     vertex -2.759850e-02 -2.484720e-01  0.000000e+00
     vertex -4.945048e-02 -2.450605e-01  0.000000e+00
   endloop
 endfacet
 facet normal  1.542489e-01  9.880320e-01  0.000000e+00
   outer loop
     vertex -2.759850e-02 -2.484720e-01  2.500000e-01
     vertex -4.945048e-02 -2.450605e-01  0.000000e+00
     vertex -4.945048e-02 -2.450605e-01  2.500000e-01
   endloop
 endfacet
 facet normal  6.632296e-02  9.977982e-01  0.000000e+00
   outer loop
     vertex -5.530522e-03 -2.499388e-01  2.500000e-01
     vertex -5.530522e-03 -2.499388e-01  0.000000e+00
     vertex -2.759850e-02 -2.484720e-01  0.000000e+00
   endloop
 endfacet
 facet normal  6.632296e-02  9.977982e-01  0.000000e+00
   outer loop
     vertex -5.530522e-03 -2.499388e-01  2.500000e-01
     vertex -2.759850e-02 -2.484720e-01  0.000000e+00
     vertex -2.759850e-02 -2.484720e-01  2.500000e-01
   endloop
 endfacet
 facet normal -2.212209e-02  9.997553e-01  0.000000e+00
   outer loop
     vertex  1.658074e-02 -2.494496e-01  2.500000e-01
     vertex  1.658074e-02 -2.494496e-01  0.000000e+00
     vertex -5.530522e-03 -2.499388e-01  0.000000e+00
   endloop
 endfacet
 facet normal -2.212209e-02  9.997553e-01  0.000000e+00
   outer loop
     vertex  1.658074e-02 -2.494496e-01  2.500000e-01
     vertex -5.530522e-03 -2.499388e-01  0.000000e+00
     vertex -5.530522e-03 -2.499388e-01  2.500000e-01
   endloop
 endfacet
 facet normal -1.103940e-01  9.938879e-01  0.000000e+00
   outer loop
     vertex  3.856223e-02 -2.470080e-01  2.500000e-01
     vertex  3.856223e-02 -2.470080e-01  0.000000e+00
     vertex  1.658074e-02 -2.494496e-01  0.000000e+00
   endloop
 endfacet
 facet normal -1.103940e-01  9.938879e-01  0.000000e+00
   outer loop
     vertex  3.856223e-02 -2.470080e-01  2.500000e-01
     vertex  1.658074e-02 -2.494496e-01  0.000000e+00
     vertex  1.658074e-02 -2.494496e-01  2.500000e-01
   endloop
 endfacet
 facet normal -1.978019e-01  9.802420e-01  0.000000e+00
   outer loop
     vertex  6.024193e-02 -2.426333e-01  2.500000e-01
     vertex  6.024193e-02 -2.426333e-01  0.000000e+00
     vertex  3.856223e-02 -2.470080e-01  0.000000e+00
   endloop
 endfacet
 facet normal -1.978019e-01  9.802420e-01  0.000000e+00
   outer loop
     vertex  6.024193e-02 -2.426333e-01  2.500000e-01
     vertex  3.856223e-02 -2.470080e-01  0.000000e+00
     vertex  3.856223e-02 -2.470080e-01  2.500000e-01
   endloop
 endfacet
 facet normal -2.836618e-01  9.589244e-01  0.000000e+00
   outer loop
     vertex  8.145014e-02 -2.363596e-01  2.500000e-01
     vertex  8.145014e-02 -2.363596e-01  0.000000e+00
     vertex  6.024193e-02 -2.426333e-01  0.000000e+00
   endloop
 endfacet
 facet normal -2.836618e-01  9.589244e-01  0.000000e+00
   outer loop
     vertex  8.145014e-02 -2.363596e-01  2.500000e-01
     vertex  6.024193e-02 -2.426333e-01  0.000000e+00
     vertex  6.024193e-02 -2.426333e-01  2.500000e-01
   endloop
 endfacet
 facet normal -3.673016e-01  9.301019e-01  0.000000e+00
   outer loop
     vertex  1.020209e-01 -2.282361e-01  2.500000e-01
     vertex  1.020209e-01 -2.282361e-01  0.000000e+00
     vertex  8.145014e-02 -2.363596e-01  0.000000e+00
   endloop
 endfacet
 facet normal -3.673016e-01  9.301019e-01  0.000000e+00
   outer loop
     vertex  1.020209e-01 -2.282361e-01  2.500000e-01
     vertex  8.145014e-02 -2.363596e-01  0.000000e+00
     vertex  8.145014e-02 -2.363596e-01  2.500000e-01
   endloop
 endfacet
 facet normal -4.480668e-01  8.940001e-01  0.000000e+00
   outer loop
     vertex  1.217932e-01 -2.183264e-01  2.500000e-01
     vertex  1.217932e-01 -2.183264e-01  0.000000e+00
     vertex  1.020209e-01 -2.282361e-01  0.000000e+00
   endloop
 endfacet
 facet normal -4.480668e-01  8.940001e-01  0.000000e+00
   outer loop
     vertex  1.217932e-01 -2.183264e-01  2.500000e-01
     vertex  1.020209e-01 -2.282361e-01  0.000000e+00
     vertex  1.020209e-01 -2.282361e-01  2.500000e-01
   endloop
 endfacet
 facet normal -5.253252e-01  8.509015e-01  0.000000e+00
   outer loop
     vertex  1.406123e-01 -2.067079e-01  2.500000e-01
     vertex  1.406123e-01 -2.067079e-01  0.000000e+00
     vertex  1.217932e-01 -2.183264e-01  0.000000e+00
   endloop
 endfacet
 facet normal -5.253252e-01  8.509015e-01  0.000000e+00
   outer loop
     vertex  1.406123e-01 -2.067079e-01  2.500000e-01
     vertex  1.217932e-01 -2.183264e-01  0.000000e+00
     vertex  1.217932e-01 -2.183264e-01  2.500000e-01
   endloop
 endfacet
 facet normal -5.984723e-01  8.011435e-01  0.000000e+00
   outer loop
     vertex  1.583310e-01 -1.934717e-01  2.500000e-01
     vertex  1.583310e-01 -1.934717e-01  0.000000e+00
     vertex  1.406123e-01 -2.067079e-01  0.000000e+00
   endloop
 endfacet
 facet normal -5.984723e-01  8.011435e-01  0.000000e+00
   outer loop
     vertex  1.583310e-01 -1.934717e-01  2.500000e-01
     vertex  1.406123e-01 -2.067079e-01  0.000000e+00
     vertex  1.406123e-01 -2.067079e-01  2.500000e-01
   endloop
 endfacet
 facet normal -6.669355e-01  7.451154e-01  0.000000e+00
   outer loop
     vertex  1.748104e-01 -1.787213e-01  2.500000e-01
     vertex  1.748104e-01 -1.787213e-01  0.000000e+00
     vertex  1.583310e-01 -1.934717e-01  0.000000e+00
   endloop
 endfacet
 facet normal -6.669355e-01  7.451154e-01  0.000000e+00
   outer loop
     vertex  1.748104e-01 -1.787213e-01  2.500000e-01
     vertex  1.583310e-01 -1.934717e-01  0.000000e+00
     vertex  1.583310e-01 -1.934717e-01  2.500000e-01
   endloop
 endfacet
 facet normal -7.301791e-01  6.832558e-01  0.000000e+00
   outer loop
     vertex  1.899218e-01 -1.625722e-01  2.500000e-01
     vertex  1.899218e-01 -1.625722e-01  0.000000e+00
     vertex  1.748104e-01 -1.787213e-01  0.000000e+00
   endloop
 endfacet
 facet normal -7.301791e-01  6.832558e-01  0.000000e+00
   outer loop
     vertex  1.899218e-01 -1.625722e-01  2.500000e-01
     vertex  1.748104e-01 -1.787213e-01  0.000000e+00
     vertex  1.748104e-01 -1.787213e-01  2.500000e-01
   endloop
 endfacet
 facet normal -7.877080e-01  6.160488e-01  0.000000e+00
   outer loop
     vertex  2.035467e-01 -1.451507e-01  2.500000e-01
     vertex  2.035467e-01 -1.451507e-01  0.000000e+00
     vertex  1.899218e-01 -1.625722e-01  0.000000e+00
   endloop
 endfacet
 facet normal -7.877080e-01  6.160488e-01  0.000000e+00
   outer loop
     vertex  2.035467e-01 -1.451507e-01  2.500000e-01
     vertex  1.899218e-01 -1.625722e-01  0.000000e+00
     vertex  1.899218e-01 -1.625722e-01  2.500000e-01
   endloop
 endfacet
 facet normal -8.390720e-01  5.440204e-01  0.000000e+00
   outer loop
     vertex  2.155786e-01 -1.265932e-01  2.500000e-01
     vertex  2.035467e-01 -1.451507e-01  0.000000e+00
     vertex  2.035467e-01 -1.451507e-01  2.500000e-01
   endloop
 endfacet
 facet normal -8.390720e-01  5.440204e-01  0.000000e+00
   outer loop
     vertex  2.155786e-01 -1.265932e-01  2.500000e-01
     vertex  2.155786e-01 -1.265932e-01  0.000000e+00
     vertex  2.035467e-01 -1.451507e-01  0.000000e+00
   endloop
 endfacet
 facet normal -8.838691e-01  4.677343e-01  0.000000e+00
   outer loop
     vertex  2.259234e-01 -1.070450e-01  2.500000e-01
     vertex  2.155786e-01 -1.265932e-01  0.000000e+00
     vertex  2.155786e-01 -1.265932e-01  2.500000e-01
   endloop
 endfacet
 facet normal -8.838691e-01  4.677343e-01  0.000000e+00
   outer loop
     vertex  2.259234e-01 -1.070450e-01  2.500000e-01
     vertex  2.259234e-01 -1.070450e-01  0.000000e+00
     vertex  2.155786e-01 -1.265932e-01  0.000000e+00
   endloop
 endfacet
 facet normal -9.217488e-01  3.877875e-01  0.000000e+00
   outer loop
     vertex  2.344999e-01 -8.665898e-02  2.500000e-01
     vertex  2.259234e-01 -1.070450e-01  0.000000e+00
     vertex  2.259234e-01 -1.070450e-01  2.500000e-01
   endloop
 endfacet
 facet normal -9.217488e-01  3.877875e-01  0.000000e+00
   outer loop
     vertex  2.344999e-01 -8.665898e-02  2.500000e-01
     vertex  2.344999e-01 -8.665898e-02  0.000000e+00
     vertex  2.259234e-01 -1.070450e-01  0.000000e+00
   endloop
 endfacet
 facet normal -9.524145e-01  3.048058e-01  0.000000e+00
   outer loop
     vertex  2.412412e-01 -6.559474e-02  2.500000e-01
     vertex  2.344999e-01 -8.665898e-02  0.000000e+00
     vertex  2.344999e-01 -8.665898e-02  2.500000e-01
   endloop
 endfacet
 facet normal -9.524145e-01  3.048058e-01  0.000000e+00
   outer loop
     vertex  2.412412e-01 -6.559474e-02  2.500000e-01
     vertex  2.412412e-01 -6.559474e-02  0.000000e+00
     vertex  2.344999e-01 -8.665898e-02  0.000000e+00
   endloop
 endfacet
 facet normal -9.756263e-01  2.194385e-01  0.000000e+00
   outer loop
     vertex  2.460945e-01 -4.401713e-02  2.500000e-01
     vertex  2.412412e-01 -6.559474e-02  0.000000e+00
     vertex  2.412412e-01 -6.559474e-02  2.500000e-01
   endloop
 endfacet
 facet normal -9.756263e-01  2.194385e-01  0.000000e+00
   outer loop
     vertex  2.460945e-01 -4.401713e-02  2.500000e-01
     vertex  2.460945e-01 -4.401713e-02  0.000000e+00
     vertex  2.412412e-01 -6.559474e-02  0.000000e+00
   endloop
 endfacet
 facet normal -9.912025e-01  1.323539e-01  0.000000e+00
   outer loop
     vertex  2.490217e-01 -2.209503e-02  2.500000e-01
     vertex  2.460945e-01 -4.401713e-02  0.000000e+00
     vertex  2.460945e-01 -4.401713e-02  2.500000e-01
   endloop
 endfacet
 facet normal -9.912025e-01  1.323539e-01  0.000000e+00
   outer loop
     vertex  2.490217e-01 -2.209503e-02  2.500000e-01
     vertex  2.490217e-01 -2.209503e-02  0.000000e+00
     vertex  2.460945e-01 -4.401713e-02  0.000000e+00
   endloop
 endfacet
 facet normal -9.990212e-01  4.423335e-02  0.000000e+00
   outer loop
     vertex  2.500000e-01 -6.123234e-17  2.500000e-01
     vertex  2.490217e-01 -2.209503e-02  0.000000e+00
     vertex  2.490217e-01 -2.209503e-02  2.500000e-01
   endloop
 endfacet
 facet normal -9.990212e-01  4.423335e-02  0.000000e+00
   outer loop
     vertex  2.500000e-01 -6.123234e-17  2.500000e-01
     vertex  2.500000e-01 -6.123234e-17  0.000000e+00
     vertex  2.490217e-01 -2.209503e-02  0.000000e+00
   endloop
 endfacet
 facet normal  0.000000e+00  0.000000e+00 -1.000000e+00
   outer loop
     vertex  1.748104e-01  1.787213e-01  2.500000e-01
     vertex  2.490217e-01  2.209503e-02  2.500000e-01
     vertex  2.500000e-01 -6.123234e-17  2.500000e-01
   endloop
 endfacet
 facet normal  0.000000e+00  0.000000e+00 -1.000000e+00
   outer loop
     vertex  1.748104e-01  1.787213e-01  2.500000e-01
     vertex  2.460945e-01  4.401713e-02  2.500000e-01
     vertex  2.490217e-01  2.209503e-02  2.500000e-01
   endloop
 endfacet
 facet normal  0.000000e+00  0.000000e+00 -1.000000e+00
   outer loop
     vertex  1.748104e-01  1.787213e-01  2.500000e-01
     vertex  2.412412e-01  6.559474e-02  2.500000e-01
     vertex  2.460945e-01  4.401713e-02  2.500000e-01
   endloop
 endfacet
 facet normal  0.000000e+00  0.000000e+00 -1.000000e+00
   outer loop
     vertex  1.748104e-01  1.787213e-01  2.500000e-01
     vertex  2.344999e-01  8.665898e-02  2.500000e-01
     vertex  2.412412e-01  6.559474e-02  2.500000e-01
   endloop
 endfacet
 facet normal  0.000000e+00  0.000000e+00 -1.000000e+00
   outer loop
     vertex  1.748104e-01  1.787213e-01  2.500000e-01
     vertex  2.259234e-01  1.070450e-01  2.500000e-01
     vertex  2.344999e-01  8.665898e-02  2.500000e-01
   endloop
 endfacet
 facet normal  0.000000e+00  0.000000e+00 -1.000000e+00
   outer loop
     vertex  1.748104e-01  1.787213e-01  2.500000e-01
     vertex  2.155786e-01  1.265932e-01  2.500000e-01
     vertex  2.259234e-01  1.070450e-01  2.500000e-01
   endloop
 endfacet
 facet normal  0.000000e+00  0.000000e+00 -1.000000e+00
   outer loop
     vertex  1.748104e-01  1.787213e-01  2.500000e-01
     vertex  2.035467e-01  1.451507e-01  2.500000e-01
     vertex  2.155786e-01  1.265932e-01  2.500000e-01
   endloop
 endfacet
 facet normal  0.000000e+00  0.000000e+00 -1.000000e+00
   outer loop
     vertex  1.748104e-01  1.787213e-01  2.500000e-01
     vertex  1.899218e-01  1.625722e-01  2.500000e-01
     vertex  2.035467e-01  1.451507e-01  2.500000e-01
   endloop
 endfacet
 facet normal  0.000000e+00  0.000000e+00 -1.000000e+00
   outer loop
     vertex  1.748104e-01  1.787213e-01  2.500000e-01
     vertex  1.406123e-01  2.067079e-01  2.500000e-01
     vertex  1.583310e-01  1.934717e-01  2.500000e-01
   endloop
 endfacet
 facet normal  0.000000e+00  0.000000e+00 -1.000000e+00
   outer loop
     vertex  1.748104e-01  1.787213e-01  2.500000e-01
     vertex  1.217932e-01  2.183264e-01  2.500000e-01
     vertex  1.406123e-01  2.067079e-01  2.500000e-01
   endloop
 endfacet
 facet normal  0.000000e+00  0.000000e+00 -1.000000e+00
   outer loop
     vertex  1.748104e-01  1.787213e-01  2.500000e-01
     vertex  1.020209e-01  2.282361e-01  2.500000e-01
     vertex  1.217932e-01  2.183264e-01  2.500000e-01
   endloop
 endfacet
 facet normal  0.000000e+00  0.000000e+00 -1.000000e+00
   outer loop
     vertex  1.748104e-01  1.787213e-01  2.500000e-01
     vertex  8.145014e-02  2.363596e-01  2.500000e-01
     vertex  1.020209e-01  2.282361e-01  2.500000e-01
   endloop
 endfacet
 facet normal  0.000000e+00  0.000000e+00 -1.000000e+00
   outer loop
     vertex  1.748104e-01  1.787213e-01  2.500000e-01
     vertex  6.024193e-02  2.426333e-01  2.500000e-01
     vertex  8.145014e-02  2.363596e-01  2.500000e-01
   endloop
 endfacet
 facet normal  0.000000e+00  0.000000e+00 -1.000000e+00
   outer loop
     vertex  1.748104e-01  1.787213e-01  2.500000e-01
     vertex  3.856223e-02  2.470080e-01  2.500000e-01
     vertex  6.024193e-02  2.426333e-01  2.500000e-01
   endloop
 endfacet
 facet normal  0.000000e+00  0.000000e+00 -1.000000e+00
   outer loop
     vertex  1.748104e-01  1.787213e-01  2.500000e-01
     vertex  1.658074e-02  2.494496e-01  2.500000e-01
     vertex  3.856223e-02  2.470080e-01  2.500000e-01
   endloop
 endfacet
 facet normal  0.000000e+00  0.000000e+00 -1.000000e+00
   outer loop
     vertex  1.748104e-01  1.787213e-01  2.500000e-01
     vertex -5.530522e-03  2.499388e-01  2.500000e-01
     vertex  1.658074e-02  2.494496e-01  2.500000e-01
   endloop
 endfacet
 facet normal  0.000000e+00  0.000000e+00 -1.000000e+00
   outer loop
     vertex  1.748104e-01  1.787213e-01  2.500000e-01
     vertex -2.759850e-02  2.484720e-01  2.500000e-01
     vertex -5.530522e-03  2.499388e-01  2.500000e-01
   endloop
 endfacet
 facet normal  0.000000e+00  0.000000e+00 -1.000000e+00
   outer loop
     vertex  1.748104e-01  1.787213e-01  2.500000e-01
     vertex -4.945048e-02  2.450605e-01  2.500000e-01
     vertex -2.759850e-02  2.484720e-01  2.500000e-01
   endloop
 endfacet
 facet normal  0.000000e+00  0.000000e+00 -1.000000e+00
   outer loop
     vertex  1.748104e-01  1.787213e-01  2.500000e-01
     vertex -7.091544e-02  2.397311e-01  2.500000e-01
     vertex -4.945048e-02  2.450605e-01  2.500000e-01
   endloop
 endfacet
 facet normal  0.000000e+00  0.000000e+00 -1.000000e+00
   outer loop
     vertex  1.748104e-01  1.787213e-01  2.500000e-01
     vertex -9.182540e-02  2.325255e-01  2.500000e-01
     vertex -7.091544e-02  2.397311e-01  2.500000e-01
   endloop
 endfacet
 facet normal  0.000000e+00  0.000000e+00 -1.000000e+00
   outer loop
     vertex  1.748104e-01  1.787213e-01  2.500000e-01
     vertex -1.120167e-01  2.235000e-01  2.500000e-01
     vertex -9.182540e-02  2.325255e-01  2.500000e-01
   endloop
 endfacet
 facet normal  0.000000e+00  0.000000e+00 -1.000000e+00
   outer loop
     vertex  1.748104e-01  1.787213e-01  2.500000e-01
     vertex -1.313313e-01  2.127254e-01  2.500000e-01
     vertex -1.120167e-01  2.235000e-01  2.500000e-01
   endloop
 endfacet
 facet normal  0.000000e+00  0.000000e+00 -1.000000e+00
   outer loop
     vertex  1.748104e-01  1.787213e-01  2.500000e-01
     vertex -1.496181e-01  2.002859e-01  2.500000e-01
     vertex -1.313313e-01  2.127254e-01  2.500000e-01
   endloop
 endfacet
 facet normal  0.000000e+00  0.000000e+00 -1.000000e+00
   outer loop
     vertex  1.748104e-01  1.787213e-01  2.500000e-01
     vertex -1.667339e-01  1.862789e-01  2.500000e-01
     vertex -1.496181e-01  2.002859e-01  2.500000e-01
   endloop
 endfacet
 facet normal -0.000000e+00  0.000000e+00 -1.000000e+00
   outer loop
     vertex  1.748104e-01  1.787213e-01  2.500000e-01
     vertex -1.825448e-01  1.708140e-01  2.500000e-01
     vertex -1.667339e-01  1.862789e-01  2.500000e-01
   endloop
 endfacet
 facet normal  0.000000e+00  0.000000e+00 -1.000000e+00
   outer loop
     vertex  1.748104e-01  1.787213e-01  2.500000e-01
     vertex -1.969270e-01  1.540122e-01  2.500000e-01
     vertex -1.825448e-01  1.708140e-01  2.500000e-01
   endloop
 endfacet
 facet normal  0.000000e+00  0.000000e+00 -1.000000e+00
   outer loop
     vertex  1.748104e-01  1.787213e-01  2.500000e-01
     vertex -2.097680e-01  1.360051e-01  2.500000e-01
     vertex -1.969270e-01  1.540122e-01  2.500000e-01
   endloop
 endfacet
 facet normal  0.000000e+00  0.000000e+00 -1.000000e+00
   outer loop
     vertex  1.748104e-01  1.787213e-01  2.500000e-01
     vertex -2.209673e-01  1.169336e-01  2.500000e-01
     vertex -2.097680e-01  1.360051e-01  2.500000e-01
   endloop
 endfacet
 facet normal  0.000000e+00  0.000000e+00 -1.000000e+00
   outer loop
     vertex  1.748104e-01  1.787213e-01  2.500000e-01
     vertex -2.304372e-01  9.694688e-02  2.500000e-01
     vertex -2.209673e-01  1.169336e-01  2.500000e-01
   endloop
 endfacet
 facet normal  0.000000e+00  0.000000e+00 -1.000000e+00
   outer loop
     vertex  1.748104e-01  1.787213e-01  2.500000e-01
     vertex -2.381036e-01  7.620144e-02  2.500000e-01
     vertex -2.304372e-01  9.694688e-02  2.500000e-01
   endloop
 endfacet
 facet normal  0.000000e+00  0.000000e+00 -1.000000e+00
   outer loop
     vertex  1.748104e-01  1.787213e-01  2.500000e-01
     vertex -2.439066e-01  5.485963e-02  2.500000e-01
     vertex -2.381036e-01  7.620144e-02  2.500000e-01
   endloop
 endfacet
 facet normal  0.000000e+00  0.000000e+00 -1.000000e+00
   outer loop
     vertex  1.748104e-01  1.787213e-01  2.500000e-01
     vertex -2.478006e-01  3.308846e-02  2.500000e-01
     vertex -2.439066e-01  5.485963e-02  2.500000e-01
   endloop
 endfacet
 facet normal  0.000000e+00  0.000000e+00 -1.000000e+00
   outer loop
     vertex  1.748104e-01  1.787213e-01  2.500000e-01
     vertex -2.497553e-01  1.105834e-02  2.500000e-01
     vertex -2.478006e-01  3.308846e-02  2.500000e-01
   endloop
 endfacet
 facet normal  0.000000e+00  0.000000e+00 -1.000000e+00
   outer loop
     vertex  1.748104e-01  1.787213e-01  2.500000e-01
     vertex -2.497553e-01 -1.105834e-02  2.500000e-01
     vertex -2.497553e-01  1.105834e-02  2.500000e-01
   endloop
 endfacet
 facet normal  0.000000e+00  0.000000e+00 -1.000000e+00
   outer loop
     vertex  1.748104e-01  1.787213e-01  2.500000e-01
     vertex -2.478006e-01 -3.308846e-02  2.500000e-01
     vertex -2.497553e-01 -1.105834e-02  2.500000e-01
   endloop
 endfacet
 facet normal  0.000000e+00  0.000000e+00 -1.000000e+00
   outer loop
     vertex  1.748104e-01  1.787213e-01  2.500000e-01
     vertex -2.439066e-01 -5.485963e-02  2.500000e-01
     vertex -2.478006e-01 -3.308846e-02  2.500000e-01
   endloop
 endfacet
 facet normal  0.000000e+00  0.000000e+00 -1.000000e+00
   outer loop
     vertex  1.748104e-01  1.787213e-01  2.500000e-01
     vertex -2.381036e-01 -7.620144e-02  2.500000e-01
     vertex -2.439066e-01 -5.485963e-02  2.500000e-01
   endloop
 endfacet
 facet normal  0.000000e+00  0.000000e+00 -1.000000e+00
   outer loop
     vertex  1.748104e-01  1.787213e-01  2.500000e-01
     vertex -2.304372e-01 -9.694688e-02  2.500000e-01
     vertex -2.381036e-01 -7.620144e-02  2.500000e-01
   endloop
 endfacet
 facet normal  0.000000e+00  0.000000e+00 -1.000000e+00
   outer loop
     vertex  1.748104e-01  1.787213e-01  2.500000e-01
     vertex -2.209673e-01 -1.169336e-01  2.500000e-01
     vertex -2.304372e-01 -9.694688e-02  2.500000e-01
   endloop
 endfacet
 facet normal  0.000000e+00  0.000000e+00 -1.000000e+00
   outer loop
     vertex  1.748104e-01  1.787213e-01  2.500000e-01
     vertex -2.097680e-01 -1.360051e-01  2.500000e-01
     vertex -2.209673e-01 -1.169336e-01  2.500000e-01
   endloop
 endfacet
 facet normal  0.000000e+00  0.000000e+00 -1.000000e+00
   outer loop
     vertex  1.748104e-01  1.787213e-01  2.500000e-01
     vertex -1.969270e-01 -1.540122e-01  2.500000e-01
     vertex -2.097680e-01 -1.360051e-01  2.500000e-01
   endloop
 endfacet
 facet normal  0.000000e+00  0.000000e+00 -1.000000e+00
   outer loop
     vertex  1.748104e-01  1.787213e-01  2.500000e-01
     vertex -1.825448e-01 -1.708140e-01  2.500000e-01
     vertex -1.969270e-01 -1.540122e-01  2.500000e-01
   endloop
 endfacet
 facet normal  0.000000e+00  0.000000e+00 -1.000000e+00
   outer loop
     vertex  1.748104e-01  1.787213e-01  2.500000e-01
     vertex -1.667339e-01 -1.862789e-01  2.500000e-01
     vertex -1.825448e-01 -1.708140e-01  2.500000e-01
   endloop
 endfacet
 facet normal  0.000000e+00  0.000000e+00 -1.000000e+00
   outer loop
     vertex  1.748104e-01  1.787213e-01  2.500000e-01
     vertex -1.496181e-01 -2.002859e-01  2.500000e-01
     vertex -1.667339e-01 -1.862789e-01  2.500000e-01
   endloop
 endfacet
 facet normal  0.000000e+00  0.000000e+00 -1.000000e+00
   outer loop
     vertex  1.748104e-01  1.787213e-01  2.500000e-01
     vertex -1.313313e-01 -2.127254e-01  2.500000e-01
     vertex -1.496181e-01 -2.002859e-01  2.500000e-01
   endloop
 endfacet
 facet normal  0.000000e+00  0.000000e+00 -1.000000e+00
   outer loop
     vertex  1.748104e-01  1.787213e-01  2.500000e-01
     vertex -1.120167e-01 -2.235000e-01  2.500000e-01
     vertex -1.313313e-01 -2.127254e-01  2.500000e-01
   endloop
 endfacet
 facet normal  0.000000e+00  0.000000e+00 -1.000000e+00
   outer loop
     vertex  1.748104e-01  1.787213e-01  2.500000e-01
     vertex -9.182540e-02 -2.325255e-01  2.500000e-01
     vertex -1.120167e-01 -2.235000e-01  2.500000e-01
   endloop
 endfacet
 facet normal  0.000000e+00  0.000000e+00 -1.000000e+00
   outer loop
     vertex  1.748104e-01  1.787213e-01  2.500000e-01
     vertex -7.091544e-02 -2.397311e-01  2.500000e-01
     vertex -9.182540e-02 -2.325255e-01  2.500000e-01
   endloop
 endfacet
 facet normal  0.000000e+00  0.000000e+00 -1.000000e+00
   outer loop
     vertex  1.748104e-01  1.787213e-01  2.500000e-01
     vertex -4.945048e-02 -2.450605e-01  2.500000e-01
     vertex -7.091544e-02 -2.397311e-01  2.500000e-01
   endloop
 endfacet
 facet normal  0.000000e+00  0.000000e+00 -1.000000e+00
   outer loop
     vertex  1.748104e-01  1.787213e-01  2.500000e-01
     vertex -2.759850e-02 -2.484720e-01  2.500000e-01
     vertex -4.945048e-02 -2.450605e-01  2.500000e-01
   endloop
 endfacet
 facet normal  0.000000e+00  0.000000e+00 -1.000000e+00
   outer loop
     vertex  1.748104e-01  1.787213e-01  2.500000e-01
     vertex -5.530522e-03 -2.499388e-01  2.500000e-01
     vertex -2.759850e-02 -2.484720e-01  2.500000e-01
   endloop
 endfacet
 facet normal  0.000000e+00  0.000000e+00 -1.000000e+00
   outer loop
     vertex  1.748104e-01  1.787213e-01  2.500000e-01
     vertex  1.658074e-02 -2.494496e-01  2.500000e-01
     vertex -5.530522e-03 -2.499388e-01  2.500000e-01
   endloop
 endfacet
 facet normal  0.000000e+00  0.000000e+00 -1.000000e+00
   outer loop
     vertex  1.748104e-01  1.787213e-01  2.500000e-01
     vertex  3.856223e-02 -2.470080e-01  2.500000e-01
     vertex  1.658074e-02 -2.494496e-01  2.500000e-01
   endloop
 endfacet
 facet normal  0.000000e+00  0.000000e+00 -1.000000e+00
   outer loop
     vertex  1.748104e-01  1.787213e-01  2.500000e-01
     vertex  6.024193e-02 -2.426333e-01  2.500000e-01
     vertex  3.856223e-02 -2.470080e-01  2.500000e-01
   endloop
 endfacet
 facet normal  0.000000e+00  0.000000e+00 -1.000000e+00
   outer loop
     vertex  1.748104e-01  1.787213e-01  2.500000e-01
     vertex  8.145014e-02 -2.363596e-01  2.500000e-01
     vertex  6.024193e-02 -2.426333e-01  2.500000e-01
   endloop
 endfacet
 facet normal  0.000000e+00  0.000000e+00 -1.000000e+00
   outer loop
     vertex  1.748104e-01  1.787213e-01  2.500000e-01
     vertex  1.020209e-01 -2.282361e-01  2.500000e-01
     vertex  8.145014e-02 -2.363596e-01  2.500000e-01
   endloop
 endfacet
 facet normal  0.000000e+00  0.000000e+00 -1.000000e+00
   outer loop
     vertex  1.748104e-01  1.787213e-01  2.500000e-01
     vertex  1.217932e-01 -2.183264e-01  2.500000e-01
     vertex  1.020209e-01 -2.282361e-01  2.500000e-01
   endloop
 endfacet
 facet normal  0.000000e+00  0.000000e+00 -1.000000e+00
   outer loop
     vertex  1.748104e-01  1.787213e-01  2.500000e-01
     vertex  1.406123e-01 -2.067079e-01  2.500000e-01
     vertex  1.217932e-01 -2.183264e-01  2.500000e-01
   endloop
 endfacet
 facet normal  0.000000e+00  0.000000e+00 -1.000000e+00
   outer loop
     vertex  1.748104e-01  1.787213e-01  2.500000e-01
     vertex  1.583310e-01 -1.934717e-01  2.500000e-01
     vertex  1.406123e-01 -2.067079e-01  2.500000e-01
   endloop
 endfacet
 facet normal  0.000000e+00  0.000000e+00 -1.000000e+00
   outer loop
     vertex  1.748104e-01  1.787213e-01  2.500000e-01
     vertex  1.748104e-01 -1.787213e-01  2.500000e-01
     vertex  1.583310e-01 -1.934717e-01  2.500000e-01
   endloop
 endfacet
 facet normal  0.000000e+00 -0.000000e+00 -1.000000e+00
   outer loop
     vertex  1.748104e-01  1.787213e-01  2.500000e-01
     vertex  1.899218e-01 -1.625722e-01  2.500000e-01
     vertex  1.748104e-01 -1.787213e-01  2.500000e-01
   endloop
 endfacet
 facet normal  0.000000e+00  0.000000e+00 -1.000000e+00
   outer loop
     vertex  1.748104e-01  1.787213e-01  2.500000e-01
     vertex  2.035467e-01 -1.451507e-01  2.500000e-01
     vertex  1.899218e-01 -1.625722e-01  2.500000e-01
   endloop
 endfacet
 facet normal  0.000000e+00  0.000000e+00 -1.000000e+00
   outer loop
     vertex  1.748104e-01  1.787213e-01  2.500000e-01
     vertex  2.155786e-01 -1.265932e-01  2.500000e-01
     vertex  2.035467e-01 -1.451507e-01  2.500000e-01
   endloop
 endfacet
 facet normal  0.000000e+00  0.000000e+00 -1.000000e+00
   outer loop
     vertex  1.748104e-01  1.787213e-01  2.500000e-01
     vertex  2.259234e-01 -1.070450e-01  2.500000e-01
     vertex  2.155786e-01 -1.265932e-01  2.500000e-01
   endloop
 endfacet
 facet normal  0.000000e+00  0.000000e+00 -1.000000e+00
   outer loop
     vertex  1.748104e-01  1.787213e-01  2.500000e-01
     vertex  2.344999e-01 -8.665898e-02  2.500000e-01
     vertex  2.259234e-01 -1.070450e-01  2.500000e-01
   endloop
 endfacet
 facet normal  0.000000e+00  0.000000e+00 -1.000000e+00
   outer loop
     vertex  1.748104e-01  1.787213e-01  2.500000e-01
     vertex  2.412412e-01 -6.559474e-02  2.500000e-01
     vertex  2.344999e-01 -8.665898e-02  2.500000e-01
   endloop
 endfacet
 facet normal  0.000000e+00  0.000000e+00 -1.000000e+00
   outer loop
     vertex  1.748104e-01  1.787213e-01  2.500000e-01
     vertex  2.460945e-01 -4.401713e-02  2.500000e-01
     vertex  2.412412e-01 -6.559474e-02  2.500000e-01
   endloop
 endfacet
 facet normal  0.000000e+00  0.000000e+00 -1.000000e+00
   outer loop
     vertex  1.748104e-01  1.787213e-01  2.500000e-01
     vertex  2.490217e-01 -2.209503e-02  2.500000e-01
     vertex  2.460945e-01 -4.401713e-02  2.500000e-01
   endloop
 endfacet
 facet normal  0.000000e+00  0.000000e+00 -1.000000e+00
   outer loop
     vertex  1.748104e-01  1.787213e-01  2.500000e-01
     vertex  2.500000e-01 -6.123234e-17  2.500000e-01
     vertex  2.490217e-01 -2.209503e-02  2.500000e-01
   endloop
 endfacet
 facet normal  0.000000e+00  0.000000e+00  1.000000e+00
   outer loop
     vertex  1.748104e-01  1.787213e-01  0.000000e+00
     vertex  2.500000e-01 -6.123234e-17  0.000000e+00
     vertex  2.490217e-01  2.209503e-02  0.000000e+00
   endloop
 endfacet
 facet normal  0.000000e+00  0.000000e+00  1.000000e+00
   outer loop
     vertex  1.748104e-01  1.787213e-01  0.000000e+00
     vertex  2.490217e-01  2.209503e-02  0.000000e+00
     vertex  2.460945e-01  4.401713e-02  0.000000e+00
   endloop
 endfacet
 facet normal  0.000000e+00  0.000000e+00  1.000000e+00
   outer loop
     vertex  1.748104e-01  1.787213e-01  0.000000e+00
     vertex  2.460945e-01  4.401713e-02  0.000000e+00
     vertex  2.412412e-01  6.559474e-02  0.000000e+00
   endloop
 endfacet
 facet normal  0.000000e+00  0.000000e+00  1.000000e+00
   outer loop
     vertex  1.748104e-01  1.787213e-01  0.000000e+00
     vertex  2.412412e-01  6.559474e-02  0.000000e+00
     vertex  2.344999e-01  8.665898e-02  0.000000e+00
   endloop
 endfacet
 facet normal  0.000000e+00  0.000000e+00  1.000000e+00
   outer loop
     vertex  1.748104e-01  1.787213e-01  0.000000e+00
     vertex  2.344999e-01  8.665898e-02  0.000000e+00
     vertex  2.259234e-01  1.070450e-01  0.000000e+00
   endloop
 endfacet
 facet normal  0.000000e+00  0.000000e+00  1.000000e+00
   outer loop
     vertex  1.748104e-01  1.787213e-01  0.000000e+00
     vertex  2.259234e-01  1.070450e-01  0.000000e+00
     vertex  2.155786e-01  1.265932e-01  0.000000e+00
   endloop
 endfacet
 facet normal  0.000000e+00  0.000000e+00  1.000000e+00
   outer loop
     vertex  1.748104e-01  1.787213e-01  0.000000e+00
     vertex  2.155786e-01  1.265932e-01  0.000000e+00
     vertex  2.035467e-01  1.451507e-01  0.000000e+00
   endloop
 endfacet
 facet normal  0.000000e+00  0.000000e+00  1.000000e+00
   outer loop
     vertex  1.748104e-01  1.787213e-01  0.000000e+00
     vertex  2.035467e-01  1.451507e-01  0.000000e+00
     vertex  1.899218e-01  1.625722e-01  0.000000e+00
   endloop
 endfacet
 facet normal  0.000000e+00  0.000000e+00  1.000000e+00
   outer loop
     vertex  1.748104e-01  1.787213e-01  0.000000e+00
     vertex  1.583310e-01  1.934717e-01  0.000000e+00
     vertex  1.406123e-01  2.067079e-01  0.000000e+00
   endloop
 endfacet
 facet normal  0.000000e+00  0.000000e+00  1.000000e+00
   outer loop
     vertex  1.748104e-01  1.787213e-01  0.000000e+00
     vertex  1.406123e-01  2.067079e-01  0.000000e+00
     vertex  1.217932e-01  2.183264e-01  0.000000e+00
   endloop
 endfacet
 facet normal  0.000000e+00  0.000000e+00  1.000000e+00
   outer loop
     vertex  1.748104e-01  1.787213e-01  0.000000e+00
     vertex  1.217932e-01  2.183264e-01  0.000000e+00
     vertex  1.020209e-01  2.282361e-01  0.000000e+00
   endloop
 endfacet
 facet normal  0.000000e+00  0.000000e+00  1.000000e+00
   outer loop
     vertex  1.748104e-01  1.787213e-01  0.000000e+00
     vertex  1.020209e-01  2.282361e-01  0.000000e+00
     vertex  8.145014e-02  2.363596e-01  0.000000e+00
   endloop
 endfacet
 facet normal  0.000000e+00  0.000000e+00  1.000000e+00
   outer loop
     vertex  1.748104e-01  1.787213e-01  0.000000e+00
     vertex  8.145014e-02  2.363596e-01  0.000000e+00
     vertex  6.024193e-02  2.426333e-01  0.000000e+00
   endloop
 endfacet
 facet normal  0.000000e+00  0.000000e+00  1.000000e+00
   outer loop
     vertex  1.748104e-01  1.787213e-01  0.000000e+00
     vertex  6.024193e-02  2.426333e-01  0.000000e+00
     vertex  3.856223e-02  2.470080e-01  0.000000e+00
   endloop
 endfacet
 facet normal  0.000000e+00  0.000000e+00  1.000000e+00
   outer loop
     vertex  1.748104e-01  1.787213e-01  0.000000e+00
     vertex  3.856223e-02  2.470080e-01  0.000000e+00
     vertex  1.658074e-02  2.494496e-01  0.000000e+00
   endloop
 endfacet
 facet normal  0.000000e+00  0.000000e+00  1.000000e+00
   outer loop
     vertex  1.748104e-01  1.787213e-01  0.000000e+00
     vertex  1.658074e-02  2.494496e-01  0.000000e+00
     vertex -5.530522e-03  2.499388e-01  0.000000e+00
   endloop
 endfacet
 facet normal  0.000000e+00  0.000000e+00  1.000000e+00
   outer loop
     vertex  1.748104e-01  1.787213e-01  0.000000e+00
     vertex -5.530522e-03  2.499388e-01  0.000000e+00
     vertex -2.759850e-02  2.484720e-01  0.000000e+00
   endloop
 endfacet
 facet normal  0.000000e+00  0.000000e+00  1.000000e+00
   outer loop
     vertex  1.748104e-01  1.787213e-01  0.000000e+00
     vertex -2.759850e-02  2.484720e-01  0.000000e+00
     vertex -4.945048e-02  2.450605e-01  0.000000e+00
   endloop
 endfacet
 facet normal  0.000000e+00  0.000000e+00  1.000000e+00
   outer loop
     vertex  1.748104e-01  1.787213e-01  0.000000e+00
     vertex -4.945048e-02  2.450605e-01  0.000000e+00
     vertex -7.091544e-02  2.397311e-01  0.000000e+00
   endloop
 endfacet
 facet normal  0.000000e+00  0.000000e+00  1.000000e+00
   outer loop
     vertex  1.748104e-01  1.787213e-01  0.000000e+00
     vertex -7.091544e-02  2.397311e-01  0.000000e+00
     vertex -9.182540e-02  2.325255e-01  0.000000e+00
   endloop
 endfacet
 facet normal  0.000000e+00  0.000000e+00  1.000000e+00
   outer loop
     vertex  1.748104e-01  1.787213e-01  0.000000e+00
     vertex -9.182540e-02  2.325255e-01  0.000000e+00
     vertex -1.120167e-01  2.235000e-01  0.000000e+00
   endloop
 endfacet
 facet normal  0.000000e+00  0.000000e+00  1.000000e+00
   outer loop
     vertex  1.748104e-01  1.787213e-01  0.000000e+00
     vertex -1.120167e-01  2.235000e-01  0.000000e+00
     vertex -1.313313e-01  2.127254e-01  0.000000e+00
   endloop
 endfacet
 facet normal  0.000000e+00  0.000000e+00  1.000000e+00
   outer loop
     vertex  1.748104e-01  1.787213e-01  0.000000e+00
     vertex -1.313313e-01  2.127254e-01  0.000000e+00
     vertex -1.496181e-01  2.002859e-01  0.000000e+00
   endloop
 endfacet
 facet normal  0.000000e+00  0.000000e+00  1.000000e+00
   outer loop
     vertex  1.748104e-01  1.787213e-01  0.000000e+00
     vertex -1.496181e-01  2.002859e-01  0.000000e+00
     vertex -1.667339e-01  1.862789e-01  0.000000e+00
   endloop
 endfacet
 facet normal  0.000000e+00  0.000000e+00  1.000000e+00
   outer loop
     vertex  1.748104e-01  1.787213e-01  0.000000e+00
     vertex -1.667339e-01  1.862789e-01  0.000000e+00
     vertex -1.825448e-01  1.708140e-01  0.000000e+00
   endloop
 endfacet
 facet normal  0.000000e+00  0.000000e+00  1.000000e+00
   outer loop
     vertex  1.748104e-01  1.787213e-01  0.000000e+00
     vertex -1.825448e-01  1.708140e-01  0.000000e+00
     vertex -1.969270e-01  1.540122e-01  0.000000e+00
   endloop
 endfacet
 facet normal  0.000000e+00  0.000000e+00  1.000000e+00
   outer loop
     vertex  1.748104e-01  1.787213e-01  0.000000e+00
     vertex -1.969270e-01  1.540122e-01  0.000000e+00
     vertex -2.097680e-01  1.360051e-01  0.000000e+00
   endloop
 endfacet
 facet normal  0.000000e+00  0.000000e+00  1.000000e+00
   outer loop
     vertex  1.748104e-01  1.787213e-01  0.000000e+00
     vertex -2.097680e-01  1.360051e-01  0.000000e+00
     vertex -2.209673e-01  1.169336e-01  0.000000e+00
   endloop
 endfacet
 facet normal  0.000000e+00  0.000000e+00  1.000000e+00
   outer loop
     vertex  1.748104e-01  1.787213e-01  0.000000e+00
     vertex -2.209673e-01  1.169336e-01  0.000000e+00
     vertex -2.304372e-01  9.694688e-02  0.000000e+00
   endloop
 endfacet
 facet normal  0.000000e+00  0.000000e+00  1.000000e+00
   outer loop
     vertex  1.748104e-01  1.787213e-01  0.000000e+00
     vertex -2.304372e-01  9.694688e-02  0.000000e+00
     vertex -2.381036e-01  7.620144e-02  0.000000e+00
   endloop
 endfacet
 facet normal  0.000000e+00  0.000000e+00  1.000000e+00
   outer loop
     vertex  1.748104e-01  1.787213e-01  0.000000e+00
     vertex -2.381036e-01  7.620144e-02  0.000000e+00
     vertex -2.439066e-01  5.485963e-02  0.000000e+00
   endloop
 endfacet
 facet normal  0.000000e+00  0.000000e+00  1.000000e+00
   outer loop
     vertex  1.748104e-01  1.787213e-01  0.000000e+00
     vertex -2.439066e-01  5.485963e-02  0.000000e+00
     vertex -2.478006e-01  3.308846e-02  0.000000e+00
   endloop
 endfacet
 facet normal  0.000000e+00  0.000000e+00  1.000000e+00
   outer loop
     vertex  1.748104e-01  1.787213e-01  0.000000e+00
     vertex -2.478006e-01  3.308846e-02  0.000000e+00
     vertex -2.497553e-01  1.105834e-02  0.000000e+00
   endloop
 endfacet
 facet normal  0.000000e+00  0.000000e+00  1.000000e+00
   outer loop
     vertex  1.748104e-01  1.787213e-01  0.000000e+00
     vertex -2.497553e-01  1.105834e-02  0.000000e+00
     vertex -2.497553e-01 -1.105834e-02  0.000000e+00
   endloop
 endfacet
 facet normal  0.000000e+00  0.000000e+00  1.000000e+00
   outer loop
     vertex  1.748104e-01  1.787213e-01  0.000000e+00
     vertex -2.497553e-01 -1.105834e-02  0.000000e+00
     vertex -2.478006e-01 -3.308846e-02  0.000000e+00
   endloop
 endfacet
 facet normal  0.000000e+00  0.000000e+00  1.000000e+00
   outer loop
     vertex  1.748104e-01  1.787213e-01  0.000000e+00
     vertex -2.478006e-01 -3.308846e-02  0.000000e+00
     vertex -2.439066e-01 -5.485963e-02  0.000000e+00
   endloop
 endfacet
 facet normal  0.000000e+00  0.000000e+00  1.000000e+00
   outer loop
     vertex  1.748104e-01  1.787213e-01  0.000000e+00
     vertex -2.439066e-01 -5.485963e-02  0.000000e+00
     vertex -2.381036e-01 -7.620144e-02  0.000000e+00
   endloop
 endfacet
 facet normal  0.000000e+00  0.000000e+00  1.000000e+00
   outer loop
     vertex  1.748104e-01  1.787213e-01  0.000000e+00
     vertex -2.381036e-01 -7.620144e-02  0.000000e+00
     vertex -2.304372e-01 -9.694688e-02  0.000000e+00
   endloop
 endfacet
 facet normal  0.000000e+00  0.000000e+00  1.000000e+00
   outer loop
     vertex  1.748104e-01  1.787213e-01  0.000000e+00
     vertex -2.304372e-01 -9.694688e-02  0.000000e+00
     vertex -2.209673e-01 -1.169336e-01  0.000000e+00
   endloop
 endfacet
 facet normal  0.000000e+00  0.000000e+00  1.000000e+00
   outer loop
     vertex  1.748104e-01  1.787213e-01  0.000000e+00
     vertex -2.209673e-01 -1.169336e-01  0.000000e+00
     vertex -2.097680e-01 -1.360051e-01  0.000000e+00
   endloop
 endfacet
 facet normal  0.000000e+00  0.000000e+00  1.000000e+00
   outer loop
     vertex  1.748104e-01  1.787213e-01  0.000000e+00
     vertex -2.097680e-01 -1.360051e-01  0.000000e+00
     vertex -1.969270e-01 -1.540122e-01  0.000000e+00
   endloop
 endfacet
 facet normal  0.000000e+00  0.000000e+00  1.000000e+00
   outer loop
     vertex  1.748104e-01  1.787213e-01  0.000000e+00
     vertex -1.969270e-01 -1.540122e-01  0.000000e+00
     vertex -1.825448e-01 -1.708140e-01  0.000000e+00
   endloop
 endfacet
 facet normal  0.000000e+00  0.000000e+00  1.000000e+00
   outer loop
     vertex  1.748104e-01  1.787213e-01  0.000000e+00
     vertex -1.825448e-01 -1.708140e-01  0.000000e+00
     vertex -1.667339e-01 -1.862789e-01  0.000000e+00
   endloop
 endfacet
 facet normal  0.000000e+00  0.000000e+00  1.000000e+00
   outer loop
     vertex  1.748104e-01  1.787213e-01  0.000000e+00
     vertex -1.667339e-01 -1.862789e-01  0.000000e+00
     vertex -1.496181e-01 -2.002859e-01  0.000000e+00
   endloop
 endfacet
 facet normal  0.000000e+00  0.000000e+00  1.000000e+00
   outer loop
     vertex  1.748104e-01  1.787213e-01  0.000000e+00
     vertex -1.496181e-01 -2.002859e-01  0.000000e+00
     vertex -1.313313e-01 -2.127254e-01  0.000000e+00
   endloop
 endfacet
 facet normal  0.000000e+00  0.000000e+00  1.000000e+00
   outer loop
     vertex  1.748104e-01  1.787213e-01  0.000000e+00
     vertex -1.313313e-01 -2.127254e-01  0.000000e+00
     vertex -1.120167e-01 -2.235000e-01  0.000000e+00
   endloop
 endfacet
 facet normal  0.000000e+00  0.000000e+00  1.000000e+00
   outer loop
     vertex  1.748104e-01  1.787213e-01  0.000000e+00
     vertex -1.120167e-01 -2.235000e-01  0.000000e+00
     vertex -9.182540e-02 -2.325255e-01  0.000000e+00
   endloop
 endfacet
 facet normal  0.000000e+00  0.000000e+00  1.000000e+00
   outer loop
     vertex  1.748104e-01  1.787213e-01  0.000000e+00
     vertex -9.182540e-02 -2.325255e-01  0.000000e+00
     vertex -7.091544e-02 -2.397311e-01  0.000000e+00
   endloop
 endfacet
 facet normal  0.000000e+00  0.000000e+00  1.000000e+00
   outer loop
     vertex  1.748104e-01  1.787213e-01  0.000000e+00
     vertex -7.091544e-02 -2.397311e-01  0.000000e+00
     vertex -4.945048e-02 -2.450605e-01  0.000000e+00
   endloop
 endfacet
 facet normal  0.000000e+00  0.000000e+00  1.000000e+00
   outer loop
     vertex  1.748104e-01  1.787213e-01  0.000000e+00
     vertex -4.945048e-02 -2.450605e-01  0.000000e+00
     vertex -2.759850e-02 -2.484720e-01  0.000000e+00
   endloop
 endfacet
 facet normal  0.000000e+00  0.000000e+00  1.000000e+00
   outer loop
     vertex  1.748104e-01  1.787213e-01  0.000000e+00
     vertex -2.759850e-02 -2.484720e-01  0.000000e+00
     vertex -5.530522e-03 -2.499388e-01  0.000000e+00
   endloop
 endfacet
 facet normal  0.000000e+00  0.000000e+00  1.000000e+00
   outer loop
     vertex  1.748104e-01  1.787213e-01  0.000000e+00
     vertex -5.530522e-03 -2.499388e-01  0.000000e+00
     vertex  1.658074e-02 -2.494496e-01  0.000000e+00
   endloop
 endfacet
 facet normal  0.000000e+00  0.000000e+00  1.000000e+00
   outer loop
     vertex  1.748104e-01  1.787213e-01  0.000000e+00
     vertex  1.658074e-02 -2.494496e-01  0.000000e+00
     vertex  3.856223e-02 -2.470080e-01  0.000000e+00
   endloop
 endfacet
 facet normal  0.000000e+00  0.000000e+00  1.000000e+00
   outer loop
     vertex  1.748104e-01  1.787213e-01  0.000000e+00
     vertex  3.856223e-02 -2.470080e-01  0.000000e+00
     vertex  6.024193e-02 -2.426333e-01  0.000000e+00
   endloop
 endfacet
 facet normal  0.000000e+00  0.000000e+00  1.000000e+00
   outer loop
     vertex  1.748104e-01  1.787213e-01  0.000000e+00
     vertex  6.024193e-02 -2.426333e-01  0.000000e+00
     vertex  8.145014e-02 -2.363596e-01  0.000000e+00
   endloop
 endfacet
 facet normal  0.000000e+00  0.000000e+00  1.000000e+00
   outer loop
     vertex  1.748104e-01  1.787213e-01  0.000000e+00
     vertex  8.145014e-02 -2.363596e-01  0.000000e+00
     vertex  1.020209e-01 -2.282361e-01  0.000000e+00
   endloop
 endfacet
 facet normal  0.000000e+00  0.000000e+00  1.000000e+00
   outer loop
     vertex  1.748104e-01  1.787213e-01  0.000000e+00
     vertex  1.020209e-01 -2.282361e-01  0.000000e+00
     vertex  1.217932e-01 -2.183264e-01  0.000000e+00
   endloop
 endfacet
 facet normal  0.000000e+00  0.000000e+00  1.000000e+00
   outer loop
     vertex  1.748104e-01  1.787213e-01  0.000000e+00
     vertex  1.217932e-01 -2.183264e-01  0.000000e+00
     vertex  1.406123e-01 -2.067079e-01  0.000000e+00
   endloop
 endfacet
 facet normal  0.000000e+00  0.000000e+00  1.000000e+00
   outer loop
     vertex  1.748104e-01  1.787213e-01  0.000000e+00
     vertex  1.406123e-01 -2.067079e-01  0.000000e+00
     vertex  1.583310e-01 -1.934717e-01  0.000000e+00
   endloop
 endfacet
 facet normal  0.000000e+00  0.000000e+00  1.000000e+00
   outer loop
     vertex  1.748104e-01  1.787213e-01  0.000000e+00
     vertex  1.583310e-01 -1.934717e-01  0.000000e+00
     vertex  1.748104e-01 -1.787213e-01  0.000000e+00
   endloop
 endfacet
 facet normal  0.000000e+00  0.000000e+00  1.000000e+00
   outer loop
     vertex  1.748104e-01  1.787213e-01  0.000000e+00
     vertex  1.748104e-01 -1.787213e-01  0.000000e+00
     vertex  1.899218e-01 -1.625722e-01  0.000000e+00
   endloop
 endfacet
 facet normal  0.000000e+00  0.000000e+00  1.000000e+00
   outer loop
     vertex  1.748104e-01  1.787213e-01  0.000000e+00
     vertex  1.899218e-01 -1.625722e-01  0.000000e+00
     vertex  2.035467e-01 -1.451507e-01  0.000000e+00
   endloop
 endfacet
 facet normal  0.000000e+00  0.000000e+00  1.000000e+00
   outer loop
     vertex  1.748104e-01  1.787213e-01  0.000000e+00
     vertex  2.035467e-01 -1.451507e-01  0.000000e+00
     vertex  2.155786e-01 -1.265932e-01  0.000000e+00
   endloop
 endfacet
 facet normal  0.000000e+00  0.000000e+00  1.000000e+00
   outer loop
     vertex  1.748104e-01  1.787213e-01  0.000000e+00
     vertex  2.155786e-01 -1.265932e-01  0.000000e+00
     vertex  2.259234e-01 -1.070450e-01  0.000000e+00
   endloop
 endfacet
 facet normal  0.000000e+00  0.000000e+00  1.000000e+00
   outer loop
     vertex  1.748104e-01  1.787213e-01  0.000000e+00
     vertex  2.259234e-01 -1.070450e-01  0.000000e+00
     vertex  2.344999e-01 -8.665898e-02  0.000000e+00
   endloop
 endfacet
 facet normal  0.000000e+00  0.000000e+00  1.000000e+00
   outer loop
     vertex  1.748104e-01  1.787213e-01  0.000000e+00
     vertex  2.344999e-01 -8.665898e-02  0.000000e+00
     vertex  2.412412e-01 -6.559474e-02  0.000000e+00
   endloop
 endfacet
 facet normal  0.000000e+00  0.000000e+00  1.000000e+00
   outer loop
     vertex  1.748104e-01  1.787213e-01  0.000000e+00
     vertex  2.412412e-01 -6.559474e-02  0.000000e+00
     vertex  2.460945e-01 -4.401713e-02  0.000000e+00
   endloop
 endfacet
 facet normal  0.000000e+00  0.000000e+00  1.000000e+00
   outer loop
     vertex  1.748104e-01  1.787213e-01  0.000000e+00
     vertex  2.460945e-01 -4.401713e-02  0.000000e+00
     vertex  2.490217e-01 -2.209503e-02  0.000000e+00
   endloop
 endfacet
 facet normal  0.000000e+00  0.000000e+00  1.000000e+00
   outer loop
     vertex  1.748104e-01  1.787213e-01  0.000000e+00
     vertex  2.490217e-01 -2.209503e-02  0.000000e+00
     vertex  2.500000e-01 -6.123234e-17  0.000000e+00
   endloop
 endfacet
endsolid
solid sides
 facet normal  0.000000e+00  0.000000e+00  1.000000e+00
   outer loop
     vertex  1.000000e+00  1.000000e+00  1.000000e+00
     vertex -1.000000e+00  1.000000e+00  1.000000e+00
     vertex -1.000000e+00 -1.000000e+00  1.000000e+00
   endloop
 endfacet
 facet normal  0.000000e+00  0.000000e+00  1.000000e+00
   outer loop
     vertex  1.000000e+00  1.000000e+00  1.000000e+00
     vertex -1.000000e+00 -1.000000e+00  1.000000e+00
     vertex  1.000000e+00 -1.000000e+00  1.000000e+00
   endloop
 endfacet
 facet normal  1.000000e+00 -0.000000e+00  0.000000e+00
   outer loop
     vertex  1.000000e+00 -1.000000e+00  1.000000e+00
     vertex  1.000000e+00  1.000000e+00 -1.000000e+00
     vertex  1.000000e+00  1.000000e+00  1.000000e+00
   endloop
 endfacet
 facet normal  1.000000e+00  0.000000e+00  0.000000e+00
   outer loop
     vertex  1.000000e+00 -1.000000e+00  1.000000e+00
     vertex  1.000000e+00 -1.000000e+00 -1.000000e+00
     vertex  1.000000e+00  1.000000e+00 -1.000000e+00
   endloop
 endfacet
 facet normal  0.000000e+00  1.000000e+00  0.000000e+00
   outer loop
     vertex  1.000000e+00  1.000000e+00  1.000000e+00
     vertex  1.000000e+00  1.000000e+00 -1.000000e+00
     vertex -1.000000e+00  1.000000e+00 -1.000000e+00
   endloop
 endfacet
 facet normal  0.000000e+00  1.000000e+00  0.000000e+00
   outer loop
     vertex  1.000000e+00  1.000000e+00  1.000000e+00
     vertex -1.000000e+00  1.000000e+00 -1.000000e+00
     vertex -1.000000e+00  1.000000e+00  1.000000e+00
   endloop
 endfacet
 facet normal -0.000000e+00  0.000000e+00 -1.000000e+00
   outer loop
     vertex  1.000000e+00  1.000000e+00 -1.000000e+00
     vertex -1.000000e+00 -1.000000e+00 -1.000000e+00
     vertex -1.000000e+00  1.000000e+00 -1.000000e+00
   endloop
 endfacet
 facet normal  0.000000e+00 -0.000000e+00 -1.000000e+00
   outer loop
     vertex  1.000000e+00  1.000000e+00 -1.000000e+00
     vertex  1.000000e+00 -1.000000e+00 -1.000000e+00
     vertex -1.000000e+00 -1.000000e+00 -1.000000e+00
   endloop
 endfacet
 facet normal -1.000000e+00  0.000000e+00  0.000000e+00
   outer loop
     vertex -1.000000e+00 -1.000000e+00  1.000000e+00
     vertex -1.000000e+00  1.000000e+00  1.000000e+00
     vertex -1.000000e+00  1.000000e+00 -1.000000e+00
   endloop
 endfacet
 facet normal -1.000000e+00  0.000000e+00  0.000000e+00
   outer loop
     vertex -1.000000e+00 -1.000000e+00  1.000000e+00
     vertex -1.000000e+00  1.000000e+00 -1.000000e+00
     vertex -1.000000e+00 -1.000000e+00 -1.000000e+00
   endloop
 endfacet
 facet normal  0.000000e+00 -1.000000e+00 -0.000000e+00
   outer loop
     vertex  1.000000e+00 -1.000000e+00  1.000000e+00
     vertex -1.000000e+00 -1.000000e+00 -1.000000e+00
     vertex  1.000000e+00 -1.000000e+00 -1.000000e+00
   endloop
 endfacet
 facet normal -0.000000e+00 -1.000000e+00  0.000000e+00
   outer loop
     vertex  1.000000e+00 -1.000000e+00  1.000000e+00
     vertex -1.000000e+00 -1.000000e+00  1.000000e+00
     vertex -1.000000e+00 -1.000000e+00 -1.000000e+00
   endloop
 endfacet
endsolid
